<svg id="Layer_1" data-name="Layer 1" xmlns="http://www.w3.org/2000/svg" viewBox="0 0 252.62 357.28"><defs><style>.cls-1{fill:#fbfbfb;}</style></defs><title>1aim-text-white</title><path id="monochromatic-black" class="cls-1" d="M241.78,294.32v48.35H231.23V313.39l-14.57,17.24L202,313.52V342.6l-10.43.07V294.31h8.66L216.63,315,233,294.32Zm-95.54,48.35h10.4V294.31h-10.4Zm-28.86,0H106.19l-3.2-7.8H82.24l-3.11,7.78H67.89L88,294.31h9.43Zm-18.48-17.8-6.26-15.94L86.3,324.88ZM22.7,295.24a12.19,12.19,0,0,1-1.41,4.22,6.3,6.3,0,0,1-2.06,2.06c-1.4.88-4.94,1.5-8.38,1.72v8.67H21.74v30.78h10V293.25H23ZM113.4,12.29c-3.83,38-55.26,42-55.26,42l.23,39.07,29.39,20.44,0-40.74S140,70,145.44,28.9L183,25.83,149.52,9.5ZM109.79,112l31.35-3.15-1,139.42-30.54-22.6Z"/></svg>