<?xml version="1.0" encoding="UTF-8" standalone="no"?>
<svg
   xmlns:dc="http://purl.org/dc/elements/1.1/"
   xmlns:cc="http://creativecommons.org/ns#"
   xmlns:rdf="http://www.w3.org/1999/02/22-rdf-syntax-ns#"
   xmlns:svg="http://www.w3.org/2000/svg"
   xmlns="http://www.w3.org/2000/svg"
   xmlns:sodipodi="http://sodipodi.sourceforge.net/DTD/sodipodi-0.dtd"
   xmlns:inkscape="http://www.inkscape.org/namespaces/inkscape"
   viewBox="0 0 959.99995 320"
   version="1.1"
   id="svg182"
   sodipodi:docname="PingCAP logo.svg"
   width="960"
   height="320"
   inkscape:version="0.92.2 2405546, 2018-03-11">
  <metadata
     id="metadata186">
    <rdf:RDF>
      <cc:Work
         rdf:about="">
        <dc:format>image/svg+xml</dc:format>
        <dc:type
           rdf:resource="http://purl.org/dc/dcmitype/StillImage" />
        <dc:title>资源 15</dc:title>
      </cc:Work>
    </rdf:RDF>
  </metadata>
  <sodipodi:namedview
     pagecolor="#ffffff"
     bordercolor="#666666"
     borderopacity="1"
     objecttolerance="10"
     gridtolerance="10"
     guidetolerance="10"
     inkscape:pageopacity="0"
     inkscape:pageshadow="2"
     inkscape:window-width="1868"
     inkscape:window-height="2050"
     id="namedview184"
     showgrid="false"
     fit-margin-left="10"
     fit-margin-top="10"
     fit-margin-right="10"
     fit-margin-bottom="10"
     inkscape:zoom="1.4025758"
     inkscape:cx="472.59991"
     inkscape:cy="29.179999"
     inkscape:window-x="1930"
     inkscape:window-y="20"
     inkscape:window-maximized="0"
     inkscape:current-layer="Layer_1" />
  <defs
     id="defs4">
    <style
       id="style2">.cls-1{fill:#172d72;}.cls-2{fill:#3351ff;}.cls-3{fill:#10a6fa;}.cls-4{font-size:24px;font-family:Helvetica, Helvetica;}.cls-4,.cls-7{fill:#333;}.cls-5{letter-spacing:-0.05em;}.cls-6{letter-spacing:-0.07em;}.cls-8{fill:#fff;}.cls-9{fill:#1a237e;}.cls-10{isolation:isolate;}</style>
  </defs>
  <title
     id="title6">资源 15</title>
  <g
     id="图层_2"
     data-name="图层 2"
     transform="translate(-522.78003,-430)">
    <g
       id="Layer_1"
       data-name="Layer 1">
      <rect
         class="cls-8"
         x="914.15002"
         y="539.59998"
         width="12.44"
         height="12.44"
         id="rect47"
         style="fill:#ffffff" />
      <rect
         class="cls-8"
         x="914.15002"
         y="567.47998"
         width="12.44"
         height="75.739998"
         id="rect49"
         style="fill:#ffffff" />
      <path
         class="cls-8"
         d="m 974.87,562.75 c -9.94,0 -18.36,3.44 -25,10.23 -6.64,6.79 -9.95,15.29 -9.95,25.4 v 44.67 h 12 v -45.74 a 21.86,21.86 0 0 1 6.77,-16.15 22.14,22.14 0 0 1 16.15,-6.77 21.56,21.56 0 0 1 15.88,6.77 21.93,21.93 0 0 1 6.91,16.15 v 45.75 h 12 v -44.67 c 0,-10.12 -3.35,-18.66 -10,-25.4 a 33.57,33.57 0 0 0 -24.76,-10.24 z"
         id="path51"
         inkscape:connector-curvature="0"
         style="fill:#ffffff" />
      <path
         class="cls-8"
         d="m 1101.53,635.64 v -32.52 a 38.59,38.59 0 0 0 -12.25,-29.2 c -8.22,-8.22 -18.1,-12.27 -29.35,-12 a 39.16,39.16 0 0 0 -27.82,12.53 40.14,40.14 0 0 0 -11.29,28.5 40.93,40.93 0 0 0 12.25,29.59 c 8.18,8.18 18,12.12 29.22,11.71 a 38.78,38.78 0 0 0 27.48,-12.33 v 5.16 m 0,0 a 23.68,23.68 0 0 1 -8.11,17.89 27.12,27.12 0 0 1 -19,7.73 27.8,27.8 0 0 1 -16.92,-5.65 25.94,25.94 0 0 1 -9,-10.54 l -9.53,5.5 a 36.54,36.54 0 0 0 9.94,12 c 6.6,5.25 14.75,8.13 24.23,8.54 q 0.89,0 1.77,0 a 40.88,40.88 0 0 0 26,-9.25 c 8.17,-6.51 12.32,-14.85 12.32,-24.8 v -2.95 m -12,-31.74 a 29.22,29.22 0 0 1 -8.41,20.22 25.7,25.7 0 0 1 -19.5,8.38 27.3,27.3 0 0 1 -20.19,-8.39 28.2,28.2 0 0 1 -8.66,-20.34 28.65,28.65 0 0 1 7.88,-20.61 27.24,27.24 0 0 1 19.53,-9.45 c 0.51,0 1,0 1.5,0 7.61,0 14,2.85 19.45,8.69 a 28.49,28.49 0 0 1 8.42,21.59 z"
         id="path53"
         inkscape:connector-curvature="0"
         style="fill:#ffffff" />
      <path
         class="cls-8"
         d="m 1194,614.69 v 0 l -0.23,0.36 a 40.09,40.09 0 0 1 -13.72,13.1 36.71,36.71 0 0 1 -18.78,5.43 c -10.95,0 -20.51,-4.37 -28.42,-13 a 43.82,43.82 0 0 1 -11.38,-31 43.13,43.13 0 0 1 11.74,-29.39 c 7.63,-8.17 16.81,-12.31 27.3,-12.31 14.36,-0.13 25.2,5.8 33.12,18.13 l 0.23,0.36 h 0.22 l 9.34,-5.77 a 51.77,51.77 0 0 0 -15.42,-16.4 48.14,48.14 0 0 0 -26.73,-8.08 46.88,46.88 0 0 0 -35.69,15.21 c -9.94,10.23 -15,23.28 -15,38.78 0,15 5,28.08 14.84,38.9 9.81,10.64 21.69,16 35.33,16 h 0.51 c 17.92,-0.38 32.7,-9.06 42.11,-24.6 z"
         id="path55"
         inkscape:connector-curvature="0"
         style="fill:#ffffff" />
      <polygon
         class="cls-8"
         points="1203.91,643.06 1218.96,643.06 1233.53,607.98 1233.55,607.98 1238.7,597.02 1238.68,597.02 1257.66,552.48 1276.26,597.02 1249.56,597.02 1244.69,607.98 1280.59,607.98 1295.3,643.06 1308.56,643.06 1263.74,537.52 1251.06,537.52 "
         id="polygon57"
         style="fill:#ffffff" />
      <path
         class="cls-8"
         d="m 1377.53,547.18 c -7,-6.32 -15.82,-9.52 -26.19,-9.52 h -34.14 v 105.4 h 12.44 v -41.29 0 -11.1 0 V 549 h 22.25 a 24.71,24.71 0 0 1 16.22,5.63 18.1,18.1 0 0 1 7.37,14 c 0.39,6.63 -1.77,11.88 -6.61,16.07 a 23.4,23.4 0 0 1 -16.31,6 h -12.89 v 11.1 h 14.91 a 33.35,33.35 0 0 0 23.22,-8.85 29,29 0 0 0 10,-21.91 c 0.13,-9.71 -3.32,-17.73 -10.27,-23.86 z"
         id="path59"
         inkscape:connector-curvature="0"
         style="fill:#ffffff" />
      <path
         class="cls-8"
         d="m 892,547.18 c -7,-6.32 -15.82,-9.52 -26.19,-9.52 h -34.14 v 105.4 h 12.44 v -41.29 0 -11.1 0 V 549 h 22.25 a 24.71,24.71 0 0 1 16.22,5.63 18.1,18.1 0 0 1 7.37,14 c 0.39,6.63 -1.77,11.88 -6.61,16.07 a 23.4,23.4 0 0 1 -16.31,6 h -12.89 v 11.1 h 14.91 a 33.35,33.35 0 0 0 23.22,-8.85 29,29 0 0 0 10,-21.91 c 0.13,-9.71 -3.32,-17.73 -10.27,-23.86 z"
         id="path61"
         inkscape:connector-curvature="0"
         style="fill:#ffffff" />
      <path
         class="cls-8"
         d="m 975.44,562.84 c -9.91,0 -18.3,3.43 -24.93,10.2 -6.63,6.77 -9.92,15.24 -9.92,25.33 v 44.53 h 12 v -45.61 a 21.79,21.79 0 0 1 6.75,-16.1 22.07,22.07 0 0 1 16.1,-6.75 21.49,21.49 0 0 1 15.83,6.75 21.86,21.86 0 0 1 6.89,16.1 v 45.61 h 12 v -44.53 c 0,-10.09 -3.34,-18.61 -9.92,-25.33 a 33.46,33.46 0 0 0 -24.8,-10.2 z"
         id="path63"
         inkscape:connector-curvature="0"
         style="fill:#ffffff" />
      <path
         class="cls-8"
         d="m 717.87,535.8 -88,-25.1 a 9.5,9.5 0 0 0 -12.11,9.13 V 682 a 9.51,9.51 0 0 0 9.48,9.5 9.58,9.58 0 0 0 2.22,-0.26 l 88,-21 v 0 a 9.47,9.47 0 0 0 7.3,-9.24 V 544.94 a 9.54,9.54 0 0 0 -6.89,-9.14 z m -0.11,123.36 a 5,5 0 0 1 -3.84,4.86 l -84.23,20 a 4,4 0 0 1 -4.93,-3.89 V 521.79 a 4,4 0 0 1 5.1,-3.85 l 84.27,24 a 5,5 0 0 1 3.63,4.81 z"
         id="path65"
         inkscape:connector-curvature="0"
         style="fill:#ffffff" />
      <path
         class="cls-8"
         d="m 777.82,530 a 9.54,9.54 0 0 0 -6.88,-9.11 l -112,-32.09 a 9.5,9.5 0 0 0 -12.13,9.2 v 123 a 9.51,9.51 0 0 0 9.48,9.5 9.56,9.56 0 0 0 2.24,-0.27 l 112.14,-27 a 9.47,9.47 0 0 0 7.28,-9.25 z m -10.71,67 -108.34,26.11 a 4,4 0 0 1 -4.94,-3.88 l -0.15,-119.28 a 4,4 0 0 1 5.1,-3.85 l 108.39,31 a 5,5 0 0 1 3.62,4.8 l 0.14,60.2 a 5,5 0 0 1 -3.82,4.9 z"
         id="path67"
         inkscape:connector-curvature="0"
         style="fill:#ffffff" />
      <rect
         class="cls-8"
         x="1649.61"
         width="440"
         height="440"
         id="rect69"
         y="0"
         style="fill:#ffffff" />
      <rect
         class="cls-8"
         x="525.46997"
         y="1.61"
         width="940"
         height="300"
         id="rect95"
         style="fill:#ffffff" />
    </g>
  </g>
</svg>
